<?xml version="1.0" encoding="UTF-8" standalone="no"?>
<svg
   id="logo_nsm_new"
   viewBox="0 0 333.06723 499.99997"
   width="333.06723"
   height="500"
   version="1.1"
   sodipodi:docname="svgexport-2.svg"
   inkscape:version="1.3 (0e150ed6c4, 2023-07-21)"
   xmlns:inkscape="http://www.inkscape.org/namespaces/inkscape"
   xmlns:sodipodi="http://sodipodi.sourceforge.net/DTD/sodipodi-0.dtd"
   xmlns="http://www.w3.org/2000/svg"
   xmlns:svg="http://www.w3.org/2000/svg">
  <sodipodi:namedview
     id="namedview1"
     pagecolor="#ffffff"
     bordercolor="#666666"
     borderopacity="1.0"
     inkscape:showpageshadow="2"
     inkscape:pageopacity="0.0"
     inkscape:pagecheckerboard="0"
     inkscape:deskcolor="#d1d1d1"
     inkscape:zoom="1.3164488"
     inkscape:cx="-52.413737"
     inkscape:cy="114.70253"
     inkscape:window-width="1920"
     inkscape:window-height="991"
     inkscape:window-x="-9"
     inkscape:window-y="-9"
     inkscape:window-maximized="1"
     inkscape:current-layer="logo_nsm_new" />
  <defs
     id="defs1">
    <style
       id="style1">.nsm_logo_new_cls-1{fill:#1d1e1c;}.nsm_logo_new_cls-2{fill:#d37b28;}</style>
  </defs>
  <path
     id="logo_emblem_sort"
     class="nsm_logo_new_cls-1"
     d="M 75.105071,239.22003 H 107.34267 V 34.175263 L 75.105071,52.787785 Z M 150.41482,9.292615 V 239.22003 h 32.2376 V 9.3062605 L 166.53021,0 Z m 75.20059,229.927415 h 32.24442 V 52.726379 L 225.61541,34.113859 Z M 300.82965,77.520332 V 239.22003 h 32.23759 V 96.146499 Z M 0,239.22685 H 32.251242 V 77.527155 L 0,96.146499 Z"
     fill="#1D1E1C"
     style="stroke-width:6.82277" />
  <path
     id="logo_emblem_gul"
     class="nsm_logo_new_cls-2"
     d="m 225.71776,465.83156 32.24442,-18.61934 V 260.77997 H 225.71776 Z M 150.41482,490.69374 166.53704,500 182.65242,490.69374 V 260.76633 h -32.2376 z M 75.207413,447.27362 107.45183,465.89296 V 260.77997 H 75.207413 Z M 0,403.8535 32.237596,422.46603 V 260.76633 H 0 Z M 300.816,260.77315 v 161.6997 L 333.06724,403.8535 V 260.77315 Z"
     fill="#D37B28"
     style="stroke-width:6.82277" />
</svg>
